<?xml version="1.0" encoding="UTF-8"?>
<svg version="1.1" xmlns="http://www.w3.org/2000/svg" width="1024" height="1024">
<path d="M0 0 C337.92 0 675.84 0 1024 0 C1024 337.92 1024 675.84 1024 1024 C686.08 1024 348.16 1024 0 1024 C0 686.08 0 348.16 0 0 Z " fill="#0C0C0C" transform="translate(0,0)"/>
<path d="M0 0 C1.34191406 -0.01836914 1.34191406 -0.01836914 2.7109375 -0.03710938 C10.41599537 -0.05390819 18.25952206 0.41339155 24.625 5.1875 C26.42239877 8.78229755 25.67937524 12.40932205 24.625 16.1875 C21.58077643 21.40032369 18.11210602 25.52781105 12.625 28.1875 C9.55078125 28.77734375 9.55078125 28.77734375 5.9375 29.125 C4.51136223 29.28194989 3.08560322 29.44236412 1.66015625 29.60546875 C0.47123779 29.73961182 0.47123779 29.73961182 -0.74169922 29.87646484 C-42.92180077 34.85861294 -84.26826846 49.98280417 -117.375 77.1875 C-118.15617188 77.80367187 -118.93734375 78.41984375 -119.7421875 79.0546875 C-124.49001848 82.942534 -128.95610728 87.45907624 -131.375 93.1875 C-131.11022937 95.89756343 -131.11022937 95.89756343 -130.375 98.1875 C-119.02506587 98.1875 -110.85507196 91.04762384 -102.11010742 84.58618164 C-74.18055918 63.98451705 -41.77168687 48.92818843 -7.375 43.1875 C-6.34246094 43.00445313 -5.30992187 42.82140625 -4.24609375 42.6328125 C14.32694802 40.49625674 44.45355571 39.34639016 61.4375 49 C63.625 51.1875 63.625 51.1875 64.875 53.875 C64.18159575 63.06260629 55.06694328 70.39508968 48.625 76.1875 C6.12232781 112.31477136 -52.35170521 120.44570287 -106.375 121.1875 C-107.38718456 125.16984205 -107.38718456 125.16984205 -106.125 129.0625 C-99.61659114 137.74037848 -86.79995192 142.60206972 -76.375 144.1875 C-63.79473201 145.01901071 -51.64256415 143.96665591 -39.375 141.1875 C-38.43720703 140.97722168 -37.49941406 140.76694336 -36.53320312 140.55029297 C-17.03648649 136.00709587 1.47617759 128.98143033 20.09423828 121.71069336 C63.79463326 104.75171664 109.15884645 99.47900105 153.25 118.6875 C169.13967885 125.90811329 182.04614057 135.22578518 194.625 147.1875 C195.26050781 147.75855469 195.89601563 148.32960938 196.55078125 148.91796875 C212.04124833 163.29933318 223.34793197 184.93103807 228.625 205.1875 C228.91262207 206.21786377 228.91262207 206.21786377 229.20605469 207.26904297 C235.09152483 228.85710108 235.21378155 255.70567392 229.5546875 277.37890625 C228.46690688 281.18174678 228.46690688 281.18174678 228.625 285.1875 C231.09420711 284.82949129 232.32140518 284.52615788 234.01171875 282.640625 C237.61360067 276.5401403 240.34980604 270.21600827 243.0625 263.6875 C251.23154622 244.09889702 251.23154622 244.09889702 259.625 240.1875 C265.67954355 239.44242868 273.16547942 238.88360891 278.75 241.75 C286.91517995 248.67265257 289.89295755 257.53133628 291.046875 268.0234375 C291.600196 283.67012586 286.65934442 298.22474926 276.5625 310.25 C266.29271004 321.14476073 251.10963547 329.23279258 235.96875 330.390625 C229.19543367 330.50227307 223.1885764 329.64196155 216.6328125 327.94140625 C215.14394531 327.56822266 215.14394531 327.56822266 213.625 327.1875 C212.08199219 326.76791016 212.08199219 326.76791016 210.5078125 326.33984375 C207.556577 325.87782345 207.556577 325.87782345 205.421875 327.8125 C204.74640625 328.59625 204.0709375 329.38 203.375 330.1875 C198.9254882 335.03117638 194.12486864 338.61660408 188.625 342.1875 C188.79 343.156875 188.955 344.12625 189.125 345.125 C190.6522225 356.55602898 190.6522225 356.55602898 187.5 361.5625 C180.54549848 367.91226226 173.57060861 368.33187238 164.62475586 368.39282227 C163.26841113 368.40765892 163.26841113 368.40765892 161.88466549 368.4227953 C158.86975156 368.45449322 155.85482308 368.47927406 152.83984375 368.50390625 C150.69841181 368.52469675 148.5569832 368.54583246 146.41555786 368.56729126 C140.65751559 368.62342424 134.89943552 368.6729217 129.14131546 368.7203331 C125.57018356 368.74993631 121.99906545 368.78087049 118.427948 368.81216431 C88.80496685 369.07005551 59.1810493 369.30347406 29.55691528 369.36373901 C26.32826895 369.37031932 23.09968296 369.38116561 19.87106323 369.39578247 C16.1148992 369.4122748 12.35885593 369.41861315 8.60265732 369.41675949 C6.6230402 369.41791735 4.64343542 369.42854169 2.66384888 369.43960571 C-14.69983563 369.39521768 -14.69983563 369.39521768 -19.13145447 365.73796082 C-20.375 364.1875 -20.375 364.1875 -20.58984375 362.20703125 C-19.41957073 352.89429527 -15.83962061 346.00458126 -8.375 340.1875 C14.70712607 324.96189883 39.92695112 324.74184843 66.49902344 329.79833984 C77.19034245 331.75538653 87.76385881 332.4929696 98.625 332.1875 C98.51886164 329.73525306 98.51886164 329.73525306 97.625 327.1875 C95.35514662 326.09758965 95.35514662 326.09758965 92.625 325.1875 C88.56988489 323.48921337 84.5348649 321.74576415 80.5 320 C79.42234375 319.54302734 78.3446875 319.08605469 77.234375 318.61523438 C59.39493348 310.86689863 44.85659824 300.39621221 37.27734375 281.8984375 C31.44358512 265.04535703 32.43769089 249.38831677 39.94140625 233.37890625 C50.51536873 214.55062548 67.57005444 201.82322864 88.1875 195.8125 C90.32632627 195.24379475 92.47177513 194.69899403 94.625 194.1875 C95.38039063 194.00058594 96.13578125 193.81367187 96.9140625 193.62109375 C101.06881566 192.95657271 105.23786206 192.81603498 109.4375 192.625 C110.32115234 192.58181641 111.20480469 192.53863281 112.11523438 192.49414062 C114.28499623 192.38858464 116.4549791 192.28758929 118.625 192.1875 C115.75368926 187.71896496 113.12341804 186.9283239 108.09375 185.73046875 C85.58043801 182.20642554 64.3643843 188.45366101 46.125 201.6875 C44.27066518 203.16145844 42.43514453 204.6595969 40.625 206.1875 C39.89925781 206.79980469 39.17351562 207.41210938 38.42578125 208.04296875 C26.7086214 218.83933019 17.73625033 235.91620612 16.40356445 251.83203125 C16.28438753 254.80815101 16.24528793 257.77150123 16.25 260.75 C16.25161133 261.80977051 16.25322266 262.86954102 16.25488281 263.96142578 C16.38919515 272.60877036 17.65198836 280.02189954 20.625 288.1875 C20.96015625 289.13882812 21.2953125 290.09015625 21.640625 291.0703125 C23.10575122 294.96568777 24.76060353 298.51662739 26.9375 302.0625 C28.625 305.1875 28.625 305.1875 28.23046875 307.3828125 C28.03066406 307.97835938 27.83085938 308.57390625 27.625 309.1875 C26.31789063 309.44273437 26.31789063 309.44273437 24.984375 309.703125 C7.25478991 313.31044318 -8.73458809 320.04904957 -24.34301758 329.15649414 C-27.88275296 330.95251751 -30.98514189 331.3117558 -34.921875 331.28515625 C-35.76621094 331.28193359 -36.61054688 331.27871094 -37.48046875 331.27539062 C-38.35316406 331.26701172 -39.22585938 331.25863281 -40.125 331.25 C-41.01316406 331.24548828 -41.90132812 331.24097656 -42.81640625 331.23632812 C-45.00267329 331.224574 -47.18880179 331.20814249 -49.375 331.1875 C-50.375 328.1875 -50.375 328.1875 -49.66796875 326.390625 C-49.30316406 325.74609375 -48.93835938 325.1015625 -48.5625 324.4375 C-44.43456725 316.53872211 -43.5878822 309.04257528 -44.375 300.1875 C-45.28658765 297.87358108 -45.28658765 297.87358108 -46.375 296.1875 C-47.695 296.1875 -49.015 296.1875 -50.375 296.1875 C-50.77589844 297.32445312 -51.17679688 298.46140625 -51.58984375 299.6328125 C-57.03631774 314.61306052 -64.01414609 326.80783673 -75.375 338.1875 C-76.19484375 339.01894531 -77.0146875 339.85039063 -77.859375 340.70703125 C-101.18450389 363.16954443 -132.56183149 370.57719593 -164.04589844 370.50317383 C-166.8981618 370.49997402 -169.74942362 370.52370237 -172.6015625 370.54882812 C-174.43229038 370.55109804 -176.263021 370.55180605 -178.09375 370.55078125 C-178.93756226 370.559991 -179.78137451 370.56920074 -180.65075684 370.57868958 C-185.8047683 370.53831984 -190.50084013 370.06165987 -194.375 366.1875 C-194.99191979 361.16401029 -194.84298767 358.23698672 -191.875 354.0625 C-181.03381637 341.18859444 -164.03400706 336.11734832 -148.70581055 330.65136719 C-147.5744165 330.24563477 -146.44302246 329.83990234 -145.27734375 329.421875 C-144.26148193 329.06319336 -143.24562012 328.70451172 -142.19897461 328.33496094 C-137.8343475 326.56148922 -135.01653056 325.14979584 -132.375 321.1875 C-132.31845613 318.66966215 -132.31845613 318.66966215 -133.375 316.1875 C-135.50031141 314.12267015 -135.50031141 314.12267015 -138.25 312.375 C-139.2503125 311.68277344 -140.250625 310.99054688 -141.28125 310.27734375 C-142.81265625 309.24287109 -142.81265625 309.24287109 -144.375 308.1875 C-169.0878879 291.17963606 -193.23511008 264.54853046 -199.375 234.1875 C-198.96484375 231.859375 -198.96484375 231.859375 -198.375 230.1875 C-197.03308594 229.84138672 -197.03308594 229.84138672 -195.6640625 229.48828125 C-186.32143475 226.9683614 -176.41485719 224.22735719 -169.375 217.1875 C-169.375 216.1975 -169.375 215.2075 -169.375 214.1875 C-171.10375963 214.13143212 -172.83311501 214.09382133 -174.5625 214.0625 C-175.52542969 214.03929687 -176.48835938 214.01609375 -177.48046875 213.9921875 C-180.91673908 214.16451801 -184.08686768 214.60552436 -187.47265625 215.17578125 C-194.22358749 216.25878228 -200.79591176 216.53413307 -207.625 216.5 C-208.80231689 216.49508545 -209.97963379 216.4901709 -211.19262695 216.48510742 C-234.51381422 216.17334822 -261.23994762 210.06342115 -278.375 193.1875 C-281.9580617 189.01944863 -284.27630796 184.9805803 -283.94921875 179.2734375 C-282.97793983 175.74511815 -280.8888303 173.04702343 -278.6875 170.16796875 C-277.09878917 168.16670134 -277.09878917 168.16670134 -277.375 165.1875 C-278.12265625 165.15011719 -278.8703125 165.11273437 -279.640625 165.07421875 C-281.11789062 164.97560547 -281.11789062 164.97560547 -282.625 164.875 C-283.59953125 164.81699219 -284.5740625 164.75898437 -285.578125 164.69921875 C-288.62841611 164.14113476 -290.08211276 163.22380224 -292.375 161.1875 C-291.56068766 140.01537928 -269.3438855 118.49751904 -254.9453125 104.515625 C-232.63596198 84.30837134 -203.31890416 71.03622709 -172.88671875 71.99853516 C-170.05325194 72.21170616 -167.30222441 72.63556146 -164.5 73.10546875 C-163.48679687 73.27014648 -162.47359375 73.43482422 -161.4296875 73.60449219 C-159.42843728 73.94549806 -157.43273618 74.32130496 -155.4453125 74.73535156 C-150.05809332 75.67563841 -150.05809332 75.67563841 -145.06835938 73.85009766 C-143.00865349 72.06964957 -141.18700437 70.21729336 -139.375 68.1875 C-138.5603125 67.3934375 -137.745625 66.599375 -136.90625 65.78125 C-136.2359375 65.0903125 -135.565625 64.399375 -134.875 63.6875 C-131.51776213 60.29009005 -128.07120646 57.0873622 -124.4453125 53.98046875 C-122.19288721 52.02978346 -120.00625614 50.01637322 -117.8125 48 C-88.79581438 21.95597177 -55.85940864 7.3874236 -17.375 1.1875 C-16.23804688 0.99285156 -15.10109375 0.79820312 -13.9296875 0.59765625 C-9.27472717 0.06054544 -4.68202293 0.0033443 0 0 Z " fill="#FEFEFD" transform="translate(525.375,520.8125)"/>
<path d="M0 0 C39.36775586 14.14553956 69.70293046 47.80766001 87.8046875 84.42382812 C93.04839153 95.62482894 97.127877 107.38769448 101.25439453 119.03515625 C101.89994665 121.103969 101.89994665 121.103969 103.08203125 122.15234375 C104.53469456 122.46001941 105.99837136 122.71607986 107.46484375 122.94921875 C143.36616308 128.8957908 172.99017796 145.17088446 194.45703125 175.08984375 C204.84268773 190.21372983 216.87202279 209.19254676 216.08203125 228.15234375 C213.64815372 229.36928251 211.66364279 229.47194271 208.95703125 229.71484375 C208.04695312 229.79863281 207.136875 229.88242187 206.19921875 229.96875 C205.50054688 230.02933594 204.801875 230.08992187 204.08203125 230.15234375 C204.43265625 231.12171875 204.78328125 232.09109375 205.14453125 233.08984375 C206.756978 238.8204099 206.17078727 243.9748317 203.51953125 249.27734375 C191.69954886 263.21886144 174.69371714 268.63470154 156.96484375 270.8359375 C136.23489714 272.52519874 115.51858322 270.76873691 96.82421875 260.96875 C94.94994236 259.94017883 94.94994236 259.94017883 92.08203125 260.15234375 C92.15882418 262.76330329 92.60488397 264.57449981 94.28515625 266.609375 C99.48796941 271.39545798 105.73533519 274.18040709 112.08203125 277.15234375 C113.41756477 277.81459178 114.7518876 278.47933551 116.08203125 279.15234375 C113.20810142 291.87547062 106.45786508 303.28314419 98.08203125 313.15234375 C97.12296875 314.45171875 97.12296875 314.45171875 96.14453125 315.77734375 C92.42898401 320.05585269 87.98075687 323.67041156 83.51953125 327.15234375 C81.78143816 329.18231264 81.78143816 329.18231264 81.95703125 332.40234375 C83.42455066 337.2940751 85.79528116 340.30851737 89.08203125 344.15234375 C89.71109375 344.92578125 90.34015625 345.69921875 90.98828125 346.49609375 C100.45923819 357.66334148 112.31351176 365.42663053 124.54052734 373.2409668 C136.90222601 381.17938135 148.47872397 390.10219874 159.52197266 399.78466797 C160.58034562 400.71252483 161.64266663 401.63589387 162.70849609 402.55517578 C180.37788806 417.82925453 180.37788806 417.82925453 181.39453125 428.40234375 C180.88352198 434.53445503 179.43994345 439.22150605 175.01953125 443.65234375 C171.34145125 446.48044728 168.2654352 446.91060593 163.6953125 446.60546875 C153.39955328 444.82025489 146.07608506 439.2965948 138.96166992 431.9543457 C122.40361495 414.87507336 102.09186044 405.851185 80.40258789 396.88842773 C71.07403455 393.0283003 61.93699144 389.01448513 53.08203125 384.15234375 C52.14133789 383.64356689 52.14133789 383.64356689 51.18164062 383.12451172 C33.89984004 373.68671883 21.01556625 360.1183656 9.38671875 344.2890625 C6.86592886 340.85822473 4.29745223 337.46820025 1.70703125 334.08984375 C1.29001953 333.54150879 0.87300781 332.99317383 0.44335938 332.42822266 C-2.43755777 328.49979819 -2.43755777 328.49979819 -5.91796875 325.15234375 C-7.23796875 325.15234375 -8.55796875 325.15234375 -9.91796875 325.15234375 C-9.78784521 332.43926195 -7.49022954 337.98013402 -4.44506836 344.47851562 C-2.78697259 348.03498575 -1.46635081 351.22227235 -0.91796875 355.15234375 C-27.12855801 362.5770727 -60.42952783 350.9398458 -85.08227539 343.13012695 C-92.940155 340.6749464 -100.8371518 338.57916717 -108.85546875 336.71484375 C-109.90275146 336.46798828 -110.95003418 336.22113281 -112.02905273 335.96679688 C-125.54355728 332.92041903 -138.82692519 333.02542964 -152.60546875 333.08984375 C-154.48242068 333.09486884 -156.35937391 333.09942996 -158.23632812 333.10351562 C-162.79690762 333.11444117 -167.35742354 333.13165018 -171.91796875 333.15234375 C-171.23216013 328.82272865 -170.26780788 324.78219721 -168.98046875 320.58984375 C-165.54117515 308.65862159 -164.61095944 297.48388437 -164.91796875 285.15234375 C-167.40056928 286.12855608 -168.68081364 286.76876221 -170.10302734 289.0690918 C-170.42094238 289.84293213 -170.73885742 290.61677246 -171.06640625 291.4140625 C-171.42855225 292.27805664 -171.79069824 293.14205078 -172.16381836 294.03222656 C-172.53643799 294.95874023 -172.90905762 295.88525391 -173.29296875 296.83984375 C-173.68943604 297.79084961 -174.08590332 298.74185547 -174.49438477 299.72167969 C-176.22106324 303.88480363 -177.90057038 308.06165548 -179.484375 312.28125 C-189.97836026 339.99613416 -208.61075911 363.52605089 -235.78613281 376.25195312 C-248.08153564 381.44497255 -261.68099535 383.38412654 -274.91796875 384.15234375 C-276.03171875 384.22026123 -276.03171875 384.22026123 -277.16796875 384.28955078 C-291.33055085 385.01404931 -305.27422431 383.30803825 -319.30419922 381.57568359 C-336.79169763 378.82356126 -336.79169763 378.82356126 -352.87768555 384.58496094 C-357.67700553 388.7610321 -361.47756023 393.12603423 -365.10546875 398.33984375 C-365.65299805 399.11086426 -366.20052734 399.88188477 -366.76464844 400.67626953 C-371.46711135 407.35977572 -375.89579865 414.21512482 -380.31420898 421.08813477 C-394.02859275 442.34762174 -410.32469574 461.90709531 -435.91796875 468.15234375 C-440.14546275 468.79129715 -443.32817061 468.44167869 -447.23046875 466.52734375 C-450.7245875 463.43951788 -452.69077087 460.92199407 -453.08203125 456.15234375 C-452.51536929 443.94731693 -443.22083803 434.3562899 -435.59960938 425.64550781 C-420.68637734 408.59105414 -410.11810336 389.70571461 -400.10546875 369.46484375 C-395.76137753 360.6853921 -391.3179353 351.98644788 -386.48046875 343.46484375 C-386.02115967 342.64733643 -385.56185059 341.8298291 -385.08862305 340.98754883 C-375.53947829 324.43879661 -375.53947829 324.43879661 -367.91796875 322.15234375 C-363.1055912 321.5949255 -358.69258945 322.12411019 -353.98046875 323.15234375 C-344.41507925 325.21692316 -337.56654708 324.69912549 -329.23046875 319.46484375 C-319.63235578 309.86673078 -319.14374475 293.19584968 -317.23046875 280.40234375 C-317.00377509 278.91528524 -316.77656466 277.42830541 -316.54882812 275.94140625 C-315.99926592 272.34593678 -315.45664149 268.74946281 -314.91796875 265.15234375 C-315.64314697 265.17917236 -316.3683252 265.20600098 -317.11547852 265.23364258 C-329.13163688 265.49284013 -337.22027806 260.59244758 -345.81762695 252.53613281 C-352.99860797 245.38277557 -356.89477223 237.19245957 -357.91796875 227.15234375 C-358.00046875 226.3634375 -358.08296875 225.57453125 -358.16796875 224.76171875 C-358.69468204 214.55664879 -355.00840018 203.35284592 -348.91796875 195.15234375 C-344.53624312 190.59569894 -340.25937232 186.55213385 -333.81640625 185.78125 C-323.93255483 185.59496899 -317.34321943 187.10371015 -309.98046875 193.83984375 C-303.9990302 203.44639658 -304.26495239 214.16851682 -303.91796875 225.15234375 C-300.28729162 224.92822788 -299.13242916 224.39207853 -296.6640625 221.6328125 C-295.88455922 220.54221532 -295.11562056 219.44401621 -294.35546875 218.33984375 C-273.80552606 190.26812499 -243.07966309 176.77872886 -209.33349609 171.46484375 C-167.52309977 165.45419573 -126.81695659 170.93828071 -85.91796875 180.15234375 C-84.06872803 180.56734131 -84.06872803 180.56734131 -82.18212891 180.99072266 C-79.82515178 181.52023269 -77.46821685 182.04993058 -75.11132812 182.57983398 C-73.99564453 182.83063721 -72.87996094 183.08144043 -71.73046875 183.33984375 C-70.64443359 183.58484619 -69.55839844 183.82984863 -68.43945312 184.08227539 C-61.12667352 185.71368157 -53.79776449 187.16983587 -46.41796875 188.46484375 C-45.51667236 188.62428467 -44.61537598 188.78372559 -43.68676758 188.94799805 C-25.30284075 192.06266577 -1.83808676 195.5644085 14.33203125 184.46484375 C22.29053579 177.8519008 27.8105055 169.80483691 33.19921875 161.09375 C35.08203125 158.15234375 35.08203125 158.15234375 37.08203125 156.15234375 C40.33984375 156.17578125 40.33984375 156.17578125 44.20703125 156.52734375 C45.48835938 156.63820313 46.7696875 156.7490625 48.08984375 156.86328125 C49.07726562 156.95867187 50.0646875 157.0540625 51.08203125 157.15234375 C49.75514255 151.51306678 45.73449778 149.07976163 41.08203125 146.15234375 C38.48155886 144.75280235 35.82420337 143.61939473 33.08203125 142.52734375 C32.29513916 142.20378906 31.50824707 141.88023437 30.69750977 141.546875 C22.539338 138.23998216 14.27030451 135.21833782 6.01953125 132.15234375 C-5.47979018 127.87854993 -16.88671907 123.54551373 -27.91796875 118.15234375 C-28.69382324 117.77400391 -29.46967773 117.39566406 -30.26904297 117.00585938 C-56.16967771 104.22279228 -76.20913387 87.38402134 -90.91796875 62.33984375 C-91.37510254 61.56374756 -91.83223633 60.78765137 -92.30322266 59.98803711 C-96.40494592 52.7665742 -99.33655023 45.75648305 -99.41796875 37.33984375 C-99.464375 35.72142578 -99.464375 35.72142578 -99.51171875 34.0703125 C-98.91796875 31.15234375 -98.91796875 31.15234375 -96.76171875 28.890625 C-86.02543755 22.32792564 -70.18284407 23.90765303 -58.29296875 26.65234375 C-25.99616246 34.87823662 1.47909521 56.44543818 25.08203125 79.15234375 C25.65195801 79.70035645 26.22188477 80.24836914 26.80908203 80.81298828 C33.54978279 87.33524883 39.96566045 93.93374924 45.80078125 101.29296875 C58.91130721 118.5215863 58.91130721 118.5215863 76.08203125 131.15234375 C78.7237786 131.45026615 78.7237786 131.45026615 81.08203125 131.15234375 C82.28253178 130.17837452 82.28253178 130.17837452 82.14990234 128.37597656 C81.6666754 121.900457 79.59565439 118.01003132 75.70703125 112.90234375 C75.16973389 112.17072021 74.63243652 111.43909668 74.07885742 110.68530273 C69.04667628 103.91447681 63.67453144 97.46400055 58.08203125 91.15234375 C57.32277344 90.29382813 56.56351563 89.4353125 55.78125 88.55078125 C53.56408662 86.06976361 51.32383615 83.61109751 49.08203125 81.15234375 C48.22996094 80.19585937 47.37789062 79.239375 46.5 78.25390625 C38.16961709 68.94338972 29.25245609 60.53595769 19.45703125 52.77734375 C18.88670166 52.32504395 18.31637207 51.87274414 17.72875977 51.40673828 C14.40308659 48.81833701 11.01061893 46.42341654 7.47265625 44.1328125 C-4.14545163 36.487724 -10.38647862 29.43233869 -14.58203125 16.03125 C-15.51563543 10.80958008 -16.04530533 5.17215511 -13.41796875 0.46484375 C-8.69572091 -2.01433637 -4.92997013 -1.43213322 0 0 Z " fill="#FEFEFD" transform="translate(599.91796875,122.84765625)"/>
<path d="M0 0 C34.60053653 3.50948299 67.32208829 22.51969283 92 46 C92.6909375 46.63808594 93.381875 47.27617187 94.09375 47.93359375 C99.42109762 52.99223743 104.69795102 58.85793917 106.1875 66.25 C106 70 106 70 103.875 72.875 C99.31409295 76.24610521 95.859229 77.41866933 90.10668945 77.35522461 C86.26380139 76.70724661 83.98108243 74.25294788 81.25 71.625 C80.02005192 70.51114354 78.78957528 69.39787049 77.55859375 68.28515625 C76.95515137 67.72715332 76.35170898 67.16915039 75.72998047 66.59423828 C62.37472262 54.2868951 47.18755832 44.59842428 31.875 34.9375 C5.9535702 18.58242012 5.9535702 18.58242012 -4 9 C-2.80100302 5.9168649 -1.52299523 2.93720508 0 0 Z " fill="#FCFCFC" transform="translate(706,454)"/>
<path d="M0 0 C0.64582031 0.51820313 1.29164063 1.03640625 1.95703125 1.5703125 C2.61058594 2.08335937 3.26414062 2.59640625 3.9375 3.125 C5.63473717 4.57977471 7.21619789 6.08907924 8.76953125 7.6953125 C7.76953125 10.6953125 7.76953125 10.6953125 5.93457031 11.88696289 C5.14276367 12.26844482 4.35095703 12.64992676 3.53515625 13.04296875 C2.65674072 13.47826904 1.7783252 13.91356934 0.87329102 14.36206055 C-0.06844971 14.82265869 -1.01019043 15.28325684 -1.98046875 15.7578125 C-15.26387757 22.49443852 -28.12523019 29.80568777 -34.10546875 44.1328125 C-35.0703125 46.12890625 -35.0703125 46.12890625 -36.23046875 47.6953125 C-39.32121841 48.59443967 -41.09946942 48.75485607 -44.23046875 48.6953125 C-45.23980469 48.74171875 -46.24914062 48.788125 -47.2890625 48.8359375 C-55.8802763 49.11927553 -63.32165109 48.53112139 -70.41796875 43.3828125 C-72.23046875 40.6953125 -72.23046875 40.6953125 -72.48046875 37.8828125 C-70.65436458 33.22624687 -67.73066356 30.20879078 -64.23046875 26.6953125 C-63.60269531 26.04433594 -62.97492188 25.39335938 -62.328125 24.72265625 C-50.74590517 13.54058989 -35.0097768 7.43106759 -20.23046875 1.6953125 C-19.02261719 1.22609375 -17.81476563 0.756875 -16.5703125 0.2734375 C-10.53934789 -1.90877027 -5.92829008 -3.46768632 0 0 Z " fill="#FCFCFB" transform="translate(350.23046875,833.3046875)"/>
<path d="M0 0 C3.36538488 1.91733083 5.23938886 3.58867007 6.625 7.3125 C7.2462021 12.79978517 6.32265177 17.52114834 3.625 22.3125 C-0.05794113 26.50343301 -4.54916789 28.92173719 -10.05859375 29.68359375 C-18.40914819 29.88495464 -18.40914819 29.88495464 -22 26.9375 C-25.97039334 22.54917052 -25.77721859 19.20975605 -25.71484375 13.4296875 C-25.12351573 8.00578217 -22.86516334 4.48753101 -18.80078125 0.9375 C-12.88865545 -3.03147956 -6.36274747 -2.86031767 0 0 Z " fill="#0D0D0D" transform="translate(334.375,640.6875)"/>
<path d="M0 0 C3.85190853 3.33832073 7.4044578 8.15309474 8.05078125 13.35546875 C8.24535739 19.30540244 7.37527268 22.62294233 3.8125 27.4375 C0.18323437 30.65199242 -3.28841611 30.96039011 -7.9765625 30.7890625 C-12.67666506 30.04169637 -15.41932572 27.28872015 -18.5 23.875 C-21.9587256 18.87906302 -22.05644141 13.31515089 -21.1875 7.4375 C-19.15359503 3.58127078 -16.47264835 1.195408 -12.75 -1 C-7.90974156 -2.06249576 -4.51378877 -2.21264155 0 0 Z " fill="#0E0E0E" transform="translate(744.1875,292.5625)"/>
<path d="M0 0 C0 0.99 0 1.98 0 3 C-1.57421875 4.359375 -1.57421875 4.359375 -3.6875 5.75 C-7.67197907 8.62335435 -10.9781734 11.43427891 -13 16 C-13.38065056 18.8128593 -13.25051511 21.14412773 -13 24 C-8.26089507 26.77371272 -4.15165821 27.52294489 1.2421875 27.73046875 C2.39474533 27.79068962 2.39474533 27.79068962 3.57058716 27.85212708 C6.00496343 27.97645892 8.43973137 28.08225748 10.875 28.1875 C12.53391484 28.26895589 14.19277054 28.35162574 15.8515625 28.43554688 C19.90049271 28.63774803 23.94987819 28.82334238 28 29 C28 29.33 28 29.66 28 30 C23.62584724 30.07493936 19.25204845 30.12896881 14.87744141 30.16479492 C13.39365111 30.17975184 11.90990401 30.20012495 10.42626953 30.22631836 C-7.878549 30.54106743 -7.878549 30.54106743 -14 27 C-16.1715835 23.61049363 -16.40006213 21.00062131 -16 17 C-12.71629058 8.70431306 -7.55204025 4.23513919 0 0 Z " fill="#040304" transform="translate(345,863)"/>
<path d="M0 0 C0.33 0.66 0.66 1.32 1 2 C-0.98 4.31 -2.96 6.62 -5 9 C-5.66 8.67 -6.32 8.34 -7 8 C-4.69 5.36 -2.38 2.72 0 0 Z M-9 10 C-8.34 10.33 -7.68 10.66 -7 11 C-7 13 -7 13 -8.3984375 14.4453125 C-9.05070312 14.99960937 -9.70296875 15.55390625 -10.375 16.125 C-11.09429687 16.73730469 -11.81359375 17.34960938 -12.5546875 17.98046875 C-16.66185612 21.37249139 -20.81807694 24.70073693 -25 28 C-25.66 27.67 -26.32 27.34 -27 27 C-22.95282632 22.81792053 -18.65002244 18.95579506 -14.3046875 15.0859375 C-12.4798561 13.43431044 -10.71698015 11.76186852 -9 10 Z " fill="#060606" transform="translate(463,844)"/>
<path d="M0 0 C3.46119898 1.15373299 3.84201793 2.21682357 5.69726562 5.17285156 C8.40966784 8.97712784 11.91787655 12.11940942 15.25 15.375 C15.99507812 16.11105469 16.74015625 16.84710938 17.5078125 17.60546875 C19.33405762 19.40830047 21.16482205 21.20626978 23 23 C22.67 23.66 22.34 24.32 22 25 C4.12468168 8.86911969 4.12468168 8.86911969 0 2 C0 1.34 0 0.68 0 0 Z " fill="#141414" transform="translate(683,459)"/>
<path d="M0 0 C0.33 0 0.66 0 1 0 C1.28875 1.134375 1.5775 2.26875 1.875 3.4375 C2.24625 4.613125 2.6175 5.78875 3 7 C5.56893838 8.28446919 7.76576337 8.32977144 10.625 8.5625 C11.62789062 8.64628906 12.63078125 8.73007812 13.6640625 8.81640625 C14.82035156 8.90728516 14.82035156 8.90728516 16 9 C16.33 9.99 16.66 10.98 17 12 C5.20529997 11.79006197 5.20529997 11.79006197 1.1875 8.8125 C-1 6 -1 6 -0.875 2.6875 C-0.58625 1.800625 -0.2975 0.91375 0 0 Z " fill="#020202" transform="translate(232,676)"/>
<path d="M0 0 C0 3.56229451 -0.76109009 4.41109679 -2.875 7.1875 C-3.40867187 7.90292969 -3.94234375 8.61835937 -4.4921875 9.35546875 C-4.98976563 9.89816406 -5.48734375 10.44085937 -6 11 C-6.66 11 -7.32 11 -8 11 C-8 11.99 -8 12.98 -8 14 C-11 16.1875 -11 16.1875 -14 18 C-14.66 17.67 -15.32 17.34 -16 17 C-14.94232422 15.95779297 -14.94232422 15.95779297 -13.86328125 14.89453125 C-10.87802862 11.90927862 -8.02862348 8.80932192 -5.1875 5.6875 C-4.68541016 5.13771484 -4.18332031 4.58792969 -3.66601562 4.02148438 C-2.44296032 2.68194761 -1.22132992 1.34111008 0 0 Z " fill="#040404" transform="translate(808,823)"/>
<path d="M0 0 C1.37478516 0.01740234 1.37478516 0.01740234 2.77734375 0.03515625 C3.69644531 0.04417969 4.61554687 0.05320312 5.5625 0.0625 C6.27277344 0.07410156 6.98304688 0.08570313 7.71484375 0.09765625 C7.05484375 0.75765625 6.39484375 1.41765625 5.71484375 2.09765625 C4.06484375 2.09765625 2.41484375 2.09765625 0.71484375 2.09765625 C1.04484375 6.05765625 1.37484375 10.01765625 1.71484375 14.09765625 C1.05484375 14.09765625 0.39484375 14.09765625 -0.28515625 14.09765625 C-0.41792969 13.494375 -0.55070313 12.89109375 -0.6875 12.26953125 C-0.86410156 11.4703125 -1.04070313 10.67109375 -1.22265625 9.84765625 C-1.39667969 9.05875 -1.57070313 8.26984375 -1.75 7.45703125 C-2.09942179 5.91651473 -2.48607196 4.38384392 -2.9140625 2.86328125 C-3.03652344 2.280625 -3.15898438 1.69796875 -3.28515625 1.09765625 C-2.28515625 0.09765625 -2.28515625 0.09765625 0 0 Z " fill="#050505" transform="translate(806.28515625,351.90234375)"/>
<path d="M0 0 C0 5.22031611 -4.50843136 8.40148241 -8 12 C-9.95311163 13.92279726 -11.73724041 15.42133052 -14 17 C-14.99 16.67 -15.98 16.34 -17 16 C-16.33613281 15.41992188 -15.67226563 14.83984375 -14.98828125 14.2421875 C-10.25375673 10.05368844 -5.9447221 5.93090262 -2 1 C-1.34 0.67 -0.68 0.34 0 0 Z " fill="#050505" transform="translate(401,470)"/>
<path d="M0 0 C0.66 0.33 1.32 0.66 2 1 C0.02 1.99 0.02 1.99 -2 3 C-1.34 2.01 -0.68 1.02 0 0 Z M-4 3 C-3.34 3.33 -2.68 3.66 -2 4 C-3.98 4.99 -3.98 4.99 -6 6 C-5.34 5.01 -4.68 4.02 -4 3 Z M-8 6 C-7.34 6.33 -6.68 6.66 -6 7 C-6.99 7.99 -7.98 8.98 -9 10 C-9.66 9.67 -10.32 9.34 -11 9 C-10.01 8.01 -9.02 7.02 -8 6 Z M-13 10 C-12.34 10.33 -11.68 10.66 -11 11 C-13.57784846 13.64752004 -15.91648098 15.94432065 -19 18 C-17.55746343 14.63408134 -15.66735273 12.48952921 -13 10 Z " fill="#151515" transform="translate(418,589)"/>
<path d="M0 0 C4.38249366 1.33909529 6.57949251 3.08994944 9 7 C9.10406448 10.33006333 7.73733778 11.28188141 5.4375 13.75 C4.2309375 14.86375 4.2309375 14.86375 3 16 C3 15.01 3 14.02 3 13 C3.495 12.54625 3.99 12.0925 4.5 11.625 C6.27889899 10.03775477 6.27889899 10.03775477 6.1875 7.3125 C6.125625 6.549375 6.06375 5.78625 6 5 C5.38125 4.690625 4.7625 4.38125 4.125 4.0625 C2.75 3.375 1.375 2.6875 0 2 C0 1.34 0 0.68 0 0 Z " fill="#161616" transform="translate(385,832)"/>
<path d="M0 0 C-1.11681345 3.35044034 -2.0436896 4.14916343 -4.6875 6.375 C-5.40292969 6.98214844 -6.11835938 7.58929687 -6.85546875 8.21484375 C-7.91701172 9.09849609 -7.91701172 9.09849609 -9 10 C-9.92232422 10.77537109 -9.92232422 10.77537109 -10.86328125 11.56640625 C-12.23698821 12.7171727 -13.61768397 13.85958928 -15 15 C-14.34 13.35 -13.68 11.7 -13 10 C-12.34 10 -11.68 10 -11 10 C-10.67 9.01 -10.34 8.02 -10 7 C-8.22265625 5.17578125 -8.22265625 5.17578125 -6.0625 3.3125 C-5.35222656 2.68988281 -4.64195312 2.06726563 -3.91015625 1.42578125 C-2 0 -2 0 0 0 Z " fill="#060606" transform="translate(398,577)"/>
<path d="M0 0 C5.50719921 3.90510489 10.35827355 8.09717644 15 13 C14.01 13.33 13.02 13.66 12 14 C11.67 13.01 11.34 12.02 11 11 C9.68280071 10.30199696 8.34662045 9.63940252 7 9 C5.078125 7.34375 5.078125 7.34375 3.25 5.5 C2.63640625 4.8915625 2.0228125 4.283125 1.390625 3.65625 C0 2 0 2 0 0 Z " fill="#141414" transform="translate(629,184)"/>
<path d="M0 0 C-0.33 0.66 -0.66 1.32 -1 2 C-3.71446979 2.31241455 -6.33909361 2.51336592 -9.0625 2.625 C-9.82111328 2.66367187 -10.57972656 2.70234375 -11.36132812 2.7421875 C-13.24047195 2.83673562 -15.12020336 2.91946756 -17 3 C-17 2.34 -17 1.68 -17 1 C-14.91835982 0.63601378 -12.83459438 0.28416713 -10.75 -0.0625 C-9.00976562 -0.35833984 -9.00976562 -0.35833984 -7.234375 -0.66015625 C-4.37477376 -0.9606216 -2.66674071 -0.9439206 0 0 Z " fill="#171817" transform="translate(348,735)"/>
<path d="M0 0 C3.19624262 1.53837846 6.21605574 3.28866532 9.25 5.125 C10.14203125 5.66382813 11.0340625 6.20265625 11.953125 6.7578125 C12.96632813 7.37269531 12.96632813 7.37269531 14 8 C13.67 8.66 13.34 9.32 13 10 C11.01464194 8.90700499 9.03686057 7.80023764 7.0625 6.6875 C5.96035156 6.07261719 4.85820312 5.45773437 3.72265625 4.82421875 C1 3 1 3 0 0 Z " fill="#121212" transform="translate(422,652)"/>
<path d="M0 0 C0.66 0 1.32 0 2 0 C3.03290841 1.93108963 4.05098672 3.870118 5.0625 5.8125 C5.63097656 6.89144531 6.19945312 7.97039062 6.78515625 9.08203125 C8 12 8 12 7 15 C3.49221789 10.79066147 0 5.5744558 0 0 Z " fill="#151615" transform="translate(593,462)"/>
<path d="M0 0 C0 0.99 0 1.98 0 3 C-1.75 4.60546875 -1.75 4.60546875 -4 6.1875 C-4.7425 6.71730469 -5.485 7.24710937 -6.25 7.79296875 C-6.8275 8.19128906 -7.405 8.58960938 -8 9 C-6.1144852 4.71640327 -3.64034299 2.84896408 0 0 Z M-10 9 C-9.34 9.33 -8.68 9.66 -8 10 C-10.97 12.475 -10.97 12.475 -14 15 C-12.84826645 12.53199953 -11.95216435 10.95216435 -10 9 Z " fill="#1C1C1C" transform="translate(702,432)"/>
<path d="M0 0 C4.67043966 1.97196341 6.65493837 3.53321595 9 8 C10.58245275 9.75149165 10.58245275 9.75149165 12 11 C11.67 11.99 11.34 12.98 11 14 C9.16056628 12.04709472 7.32840869 10.08818082 5.5 8.125 C4.97535156 7.56941406 4.45070313 7.01382812 3.91015625 6.44140625 C0 2.2265625 0 2.2265625 0 0 Z " fill="#060606" transform="translate(777,277)"/>
<path d="M0 0 C0 3.87624922 -1.47244427 6.4560707 -3 10 C-3.69140522 12.77888613 -3.69140522 12.77888613 -4 15 C-4.33 15 -4.66 15 -5 15 C-5.76681614 7.33183857 -5.76681614 7.33183857 -3.88671875 4.06640625 C-2.5 2.4375 -2.5 2.4375 0 0 Z " fill="#060506" transform="translate(314,645)"/>
<path d="M0 0 C4.0144599 1.3381533 5.35766442 3.76313892 8 7 C8.99 7.66 9.98 8.32 11 9 C11 9.66 11 10.32 11 11 C7.584241 9.55661511 5.63973737 7.75105832 3.25 4.9375 C2.63640625 4.22464844 2.0228125 3.51179687 1.390625 2.77734375 C0 1 0 1 0 0 Z " fill="#070606" transform="translate(242,709)"/>
<path d="M0 0 C2.32758311 0.93103324 3.74357132 1.65382128 5.25 3.6875 C6.27095909 6.83545718 6.12632947 9.71543368 6 13 C5.67 13 5.34 13 5 13 C4.731875 11.9275 4.46375 10.855 4.1875 9.75 C3.12368849 6.39059522 2.16633521 4.65868412 0 2 C0 1.34 0 0.68 0 0 Z " fill="#1A1A1A" transform="translate(335,642)"/>
<path d="M0 0 C0 3 0 3 -2.25 5.5625 C-4.51797524 7.57275078 -6.23189141 8.87225206 -9 10 C-6.43571997 5.82117329 -3.98069267 2.87494471 0 0 Z " fill="#060606" transform="translate(228,445)"/>
<path d="M0 0 C0.66 0 1.32 0 2 0 C0.33248852 3.94139078 -2.22710649 6.7892812 -5 10 C-5.66 9.67 -6.32 9.34 -7 9 C-5.88266271 7.49428343 -4.75589965 5.99555708 -3.625 4.5 C-2.99851562 3.6646875 -2.37203125 2.829375 -1.7265625 1.96875 C-1.15679688 1.3190625 -0.58703125 0.669375 0 0 Z " fill="#040404" transform="translate(803,371)"/>
<path d="M0 0 C2.4375 0.6875 2.4375 0.6875 5 2 C5.8125 4.625 5.8125 4.625 6 7 C5.01 7.33 4.02 7.66 3 8 C2.87625 7.195625 2.7525 6.39125 2.625 5.5625 C2.315625 4.2940625 2.315625 4.2940625 2 3 C1.34 2.67 0.68 2.34 0 2 C0 1.34 0 0.68 0 0 Z " fill="#151516" transform="translate(618,846)"/>
<path d="M0 0 C2.97 0.33 5.94 0.66 9 1 C9.33 1.99 9.66 2.98 10 4 C6.7 3.34 3.4 2.68 0 2 C0 1.34 0 0.68 0 0 Z " fill="#151515" transform="translate(514,302)"/>
<path d="M0 0 C2.04119788 1.61594832 4.04072937 3.2856382 6 5 C6 5.66 6 6.32 6 7 C6.99 7.33 7.98 7.66 9 8 C9 8.66 9 9.32 9 10 C4.71095765 8.4114658 2.67654474 5.56872632 0 2 C0 1.34 0 0.68 0 0 Z " fill="#060606" transform="translate(634,210)"/>
<path d="M0 0 C0.33 0.66 0.66 1.32 1 2 C0.01 3.485 0.01 3.485 -1 5 C-4.625 5.1875 -4.625 5.1875 -8 5 C-7 3 -7 3 -4 1.9375 C-2.515 1.4734375 -2.515 1.4734375 -1 1 C-0.67 0.67 -0.34 0.34 0 0 Z " fill="#030303" transform="translate(316,878)"/>
<path d="M0 0 C2 0 2 0 3.4375 1.375 C3.953125 1.91125 4.46875 2.4475 5 3 C5.99 3.66 6.98 4.32 8 5 C8 5.66 8 6.32 8 7 C4.66272214 5.82744291 2.22562513 4.81131596 0 2 C0 1.34 0 0.68 0 0 Z " fill="#131414" transform="translate(310,663)"/>
<path d="M0 0 C0.99 0.33 1.98 0.66 3 1 C3 3.31 3 5.62 3 8 C2.34 7.67 1.68 7.34 1 7 C1 5.35 1 3.7 1 2 C0.34 1.67 -0.32 1.34 -1 1 C-0.67 0.67 -0.34 0.34 0 0 Z " fill="#020101" transform="translate(433,407)"/>
<path d="M0 0 C3.24208567 0.35049575 4.61527704 0.56221181 6.8125 3.0625 C7.204375 3.701875 7.59625 4.34125 8 5 C7.01 5 6.02 5 5 5 C5 4.34 5 3.68 5 3 C1.95086772 1.98888907 1.95086772 1.98888907 -1 3 C-0.67 2.01 -0.34 1.02 0 0 Z " fill="#040304" transform="translate(590,447)"/>
</svg>
